<svg xmlns="http://www.w3.org/2000/svg" viewBox="0 0 1654 90.33"><defs><style>.cls-1{fill:#6DB29E;}</style></defs><g id="Layer_2" data-name="Layer 2"><g id="Layer_1-2" data-name="Layer 1"><path class="cls-1" d="M1654,.13h-8.5a19.41,19.41,0,0,0-7,.53c-11.92,2.63-19.63,10.52-25.78,20.37-4.56,7.31-8,15.17-11.77,22.91-3.58,7.45-7,15-12.33,21.46-7.46,9-16.44,9.09-24,.17-5.4-6.4-8.82-14-12.44-21.39-4.78-9.8-9-19.88-15.78-28.61-15.78-20.49-39.74-20.41-55.41.16-5.76,7.56-9.68,16.14-13.76,24.63-4.15,8.64-7.85,17.55-14,25.07-7.57,9.31-16.63,9.3-24.27.09-5-6-8.33-13.11-11.73-20.1-4.41-9.06-8.45-18.31-14.12-26.7-4.73-7-10.56-12.8-18.54-16-13.8-5.57-28.44-.64-38.92,13.06-6.07,8-10.15,17-14.42,26-3.91,8.2-7.54,16.58-13.29,23.73-7.67,9.53-16.88,9.51-24.6,0-5.15-6.36-8.54-13.75-12.07-21-4.6-9.51-8.83-19.24-15.18-27.8-5.71-7.67-12.86-13.31-22.47-15.39a21.66,21.66,0,0,0-6.17-.61c-2.1-.55-4.65-.4-8,.32-11.92,2.62-19.65,10.5-25.81,20.34-4.57,7.3-8.07,15.16-11.8,22.89-3.59,7.45-7,15-12.36,21.45-7.47,9-16.45,9.06-24,.13-5.39-6.4-8.8-14-12.41-21.4-4.76-9.82-9-19.9-15.74-28.64-15.76-20.51-39.71-20.46-55.41.08-5.77,7.56-9.7,16.13-13.8,24.62s-7.87,17.53-14,25.05c-7.58,9.29-16.64,9.28-24.27.06-5-6.06-8.31-13.13-11.7-20.12-4.4-9.06-8.42-18.32-14.09-26.72-4.72-7-10.53-12.82-18.51-16-13.8-5.58-28.44-.68-38.94,13-6.09,7.94-10.17,17-14.46,26-3.92,8.19-7.56,16.57-13.32,23.71-7.68,9.52-16.89,9.49-24.59,0-5.15-6.36-8.53-13.75-12-21.06-4.58-9.52-8.8-19.25-15.14-27.82C851.51,8.69,844.37,3,834.77.94A21.69,21.69,0,0,0,828.5.33c-2.11-.55-4.67-.4-8,.33C808.6,3.29,800.89,11.18,794.74,21c-4.56,7.31-8,15.17-11.77,22.91-3.58,7.45-7,15-12.33,21.46-7.46,9-16.44,9.09-24,.17-5.4-6.4-8.82-14-12.44-21.39-4.78-9.8-9.05-19.88-15.78-28.61C702.67-4.92,678.71-4.84,663,15.73c-5.76,7.56-9.68,16.14-13.76,24.63-4.15,8.64-7.85,17.55-14,25.07-7.57,9.31-16.63,9.3-24.27.09-5-6-8.33-13.11-11.73-20.1-4.41-9.06-8.45-18.31-14.12-26.7-4.73-7-10.56-12.8-18.54-16-13.8-5.57-28.44-.64-38.92,13.06-6.07,8-10.15,17-14.42,26-3.91,8.2-7.54,16.58-13.29,23.73-7.67,9.53-16.88,9.51-24.6,0-5.15-6.36-8.54-13.75-12.07-21-4.6-9.51-8.83-19.24-15.18-27.8C442.46,8.94,435.31,3.3,425.7,1.22a21.66,21.66,0,0,0-6.17-.61c-2.1-.55-4.65-.4-7.95.32-11.92,2.62-19.65,10.5-25.81,20.34-4.57,7.3-8.07,15.16-11.8,22.89-3.59,7.45-7,15-12.36,21.45-7.47,9-16.45,9.06-24,.13-5.39-6.4-8.8-14-12.41-21.4-4.76-9.82-9-19.9-15.74-28.64-15.76-20.51-39.71-20.46-55.41.08-5.77,7.56-9.7,16.13-13.8,24.62s-7.87,17.53-14,25.05c-7.58,9.29-16.64,9.28-24.27.06-5-6.06-8.31-13.13-11.7-20.12-4.4-9.06-8.42-18.32-14.09-26.72-4.72-7-10.53-12.82-18.51-16-13.8-5.58-28.44-.68-38.94,13-6.09,7.94-10.17,17-14.46,26C100.39,49.78,96.75,58.16,91,65.3c-7.68,9.52-16.89,9.49-24.59,0-5.15-6.36-8.53-13.75-12.05-21.06-4.58-9.52-8.8-19.25-15.14-27.82C33.51,8.69,26.37,3,16.77.94A23.3,23.3,0,0,0,11,.3V.13H0v82H1.9v8l56.68-7.43c12.53,10.09,28.59,9.9,41-.59H193.3c12.7,10.72,28.79,10.76,41.62,0h93.82c12.67,10.7,29,10.71,41.67,0h96.26c12.73,10.93,29.4,10.93,42.12,0h93.52c12.72,10.72,28.81,10.76,41.63,0h94c12.57,10.45,28.63,10.46,41.22,0h96.66c12.63,10.69,29.07,10.69,41.7,0h93.74c12.7,10.72,28.79,10.76,41.62,0h93.82c12.67,10.7,29,10.71,41.67,0h96.26c12.73,10.93,29.4,10.93,42.12,0h93.52c12.72,10.72,28.81,10.76,41.63,0h94c12.14,10.1,27.53,10.45,39.92,1l53.1,7v-8h5Z"/></g></g></svg>
